<svg width="10" height="8" viewBox="0 0 10 8" fill="none" xmlns="http://www.w3.org/2000/svg">
<path d="M9.69531 4.28613L9.33691 4.6582L6.29883 7.81348L6.23926 7.87598L6.17871 7.81348L5.46289 7.06934L5.40625 7.01172L5.46289 6.95312L7.49902 4.83789L1.32422 4.83789C1.16665 4.83789 1.01569 4.77287 0.905273 4.6582C0.795076 4.54375 0.733516 4.38904 0.733398 4.22852C0.733398 4.06782 0.794964 3.91241 0.905273 3.79785C1.01569 3.68319 1.16666 3.61816 1.32422 3.61816L7.49902 3.61816L5.46289 1.50293L5.40625 1.44434L5.46289 1.38672L6.17871 0.642578L6.23926 0.580078L6.29883 0.642578L9.33691 3.79785L9.69531 4.16992L9.75098 4.22852L9.69531 4.28613Z" fill="#6FE45D" stroke="#6FE45D" stroke-width="0.167689"/>
</svg>
