<svg width="48" height="48" viewBox="0 0 48 48" fill="none" xmlns="http://www.w3.org/2000/svg">
<g clip-path="url(#clip0_1722_5768)">
<path d="M16.0008 17.2998H30.7008C32.2008 17.2998 33.4008 18.4998 33.4008 19.9998V20.6998C33.4008 21.0998 33.7008 21.3998 34.1008 21.3998C34.5008 21.3998 34.8008 21.6998 34.8008 22.0998V26.0998C34.8008 26.4998 34.5008 26.7998 34.1008 26.7998C33.7008 26.7998 33.4008 27.0998 33.4008 27.4998V27.9998C33.4008 29.4998 32.2008 30.6998 30.7008 30.6998H16.0008C14.5008 30.6998 13.3008 29.4998 13.3008 27.9998V19.9998C13.3008 18.4998 14.5008 17.2998 16.0008 17.2998Z" stroke="black" stroke-miterlimit="5.3333" stroke-linecap="round" stroke-linejoin="round"/>
<path d="M17.3008 21.2998V26.6998" stroke="black" stroke-miterlimit="5.3333" stroke-linecap="round" stroke-linejoin="round"/>
</g>
<defs>
<clipPath id="clip0_1722_5768">
<rect width="32" height="32" fill="white" transform="translate(8 8)"/>
</clipPath>
</defs>
</svg>
